:version 1.10
:name ASF
:units
  mass 1
  length 1
  angle deg
:documentation
  ASF file generated by Kaydara
:root
  axis xyz
  order  tx ty tz rx ry rz
  position 0 0 0
  orientation 0 0 0
:bonedata
  begin
    id 1
    name LeftUpLegDummy
    direction 1 -2.30186e-007 -8.31532e-007
    length 2.93387
    axis 0 0 0 xyz
  end
  begin
    id 2
    name LeftUpLeg
    direction -1.82929e-007 -1 -1.48925e-009
    length 17.3336
    axis -3.48766 0.00143442 -0.000521554 xyz
    dof rx ry rz
  end
  begin
    id 3
    name LeftLeg
    direction -1.82929e-007 -1 -5.23717e-011
    length 14.9995
    axis 3.68178 -0.00654042 -0.000282425 xyz
    dof rx ry rz
  end
  begin
    id 4
    name LeftFoot
    direction 8.31532e-007 -4.54534e-011 1
    length 6.74421
    axis 1.87234e-006 4.66016e-005 -5.96866e-006 xyz
    dof rx ry rz
  end
  begin
    id 5
    name LeftToes
    direction 0.00818058 -0.00485161 0.999955
    length 3.85048
    axis 1.06247e-005 4.65869e-005 -5.96999e-006 xyz
    dof rx ry rz
  end
  begin
    id 6
    name SpineDummy
    direction -5.8607e-008 0.943407 -0.331637
    length 5.93572
    axis 0 0 0 xyz
  end
  begin
    id 7
    name Spine
    direction -1.04988e-007 0.999988 0.00495137
    length 10.1015
    axis -0.001389 0.000121417 6.61666e-006 xyz
    dof rx ry rz
  end
  begin
    id 8
    name Spine1
    direction 0 0 0
    length 0
    axis -0.001389 0.00012144 6.56766e-006 xyz
    dof rx ry rz
  end
  begin
    id 9
    name RightShoulderDummy
    direction -0.98348 0.17941 -0.0240696
    length 3.59882
    axis -0.001389 0.00012144 6.56766e-006 xyz
  end
  begin
    id 10
    name RightShoulder
    direction -0.978693 0.204882 0.0135597
    length 2.70001
    axis 0.215806 0.000203631 -0.00679732 xyz
    dof rx ry rz
  end
  begin
    id 11
    name RightArm
    direction -1 3.85509e-006 8.31394e-007
    length 10.2459
    axis -23.2009 -0.134239 -0.964098 xyz
    dof rx ry rz
  end
  begin
    id 12
    name RightForeArm
    direction -1 3.85569e-006 8.3129e-007
    length 8.16799
    axis -9.92322 0.0658061 0.17887 xyz
    dof rx ry rz
  end
  begin
    id 13
    name RightHand
    direction -0.992843 -0.0414604 0.112003
    length 5.28593
    axis -0.00960638 0.00330669 -0.185225 xyz
    dof rx ry rz
  end
  begin
    id 14
    name LeftShoulder1Dummy
    direction 0.983523 0.179172 -0.0240748
    length 3.59866
    axis -0.001389 0.00012144 6.56766e-006 xyz
  end
  begin
    id 15
    name LeftShoulder1
    direction 0.978627 0.205195 0.0135605
    length 2.70019
    axis -0.001389 0.00012144 6.57583e-006 xyz
    dof rx ry rz
  end
  begin
    id 16
    name LeftArm
    direction 1 3.51895e-006 -8.60188e-007
    length 10.2459
    axis -23.1894 0.134785 0.967513 xyz
    dof rx ry rz
  end
  begin
    id 17
    name LeftForeArm
    direction 1 3.51921e-006 -7.32029e-007
    length 8.16799
    axis -9.91835 -0.0656957 -0.177789 xyz
    dof rx ry rz
  end
  begin
    id 18
    name LeftHand
    direction 0.992938 -0.0411636 0.11126
    length 5.32135
    axis -0.00960237 -0.00340661 0.185177 xyz
    dof rx ry rz
  end
  begin
    id 19
    name HEadDummy
    direction 1.01974e-006 0.999861 -0.016675
    length 2.99946
    axis -0.001389 0.00012144 6.56766e-006 xyz
  end
  begin
    id 20
    name HEad
    direction -0.0222689 0.980941 0.193023
    length 5.12695
    axis -0.001389 0.00012144 6.56766e-006 xyz
    dof rx ry rz
  end
  begin
    id 21
    name RightUpLegDummy
    direction -1 2.30186e-007 8.31532e-007
    length 2.93387
    axis 0 0 0 xyz
  end
  begin
    id 22
    name RightUpLeg
    direction -1.82966e-007 -1 1.56832e-007
    length 17.3336
    axis -3.4909 -0.000906625 0.00028951 xyz
    dof rx ry rz
  end
  begin
    id 23
    name RightLeg
    direction -1.82786e-007 -1 -1.80317e-007
    length 14.9995
    axis 3.68513 0.0193739 -0.131021 xyz
    dof rx ry rz
  end
  begin
    id 24
    name RightFoot
    direction 8.31721e-007 -4.63324e-011 1
    length 6.74421
    axis 4.81691e-005 -0.120479 -0.188785 xyz
    dof rx ry rz
  end
  begin
    id 25
    name RightToes
    direction 0.00124746 -0.014064 0.9999
    length 3.85082
    axis 0.000481921 0.542163 -0.142575 xyz
    dof rx ry rz
  end
:hierarchy
  begin
    root LeftUpLegDummy SpineDummy RightUpLegDummy
    LeftUpLegDummy LeftUpLeg
    LeftUpLeg LeftLeg
    LeftLeg LeftFoot
    LeftFoot LeftToes
    SpineDummy Spine
    Spine Spine1
    Spine1 RightShoulderDummy LeftShoulder1Dummy HEadDummy
    RightShoulderDummy RightShoulder
    RightShoulder RightArm
    RightArm RightForeArm
    RightForeArm RightHand
    LeftShoulder1Dummy LeftShoulder1
    LeftShoulder1 LeftArm
    LeftArm LeftForeArm
    LeftForeArm LeftHand
    HEadDummy HEad
    RightUpLegDummy RightUpLeg
    RightUpLeg RightLeg
    RightLeg RightFoot
    RightFoot RightToes
  end

:SAMPLES-PER-SECOND 30
:FULLY-SPECIFIED
:DEGREES
115
root  2.80392 33.9772 -14.1028 5.28702 -3.39117 2.80918
LeftUpLeg  -2.52505 13.7837 -2.91567
LeftLeg  10.1272 11.037 1.2378
LeftFoot  -4.88505 -0.0403968 -0.947025
LeftToes  -11.8408 8.556e-007 1.17171e-007
Spine  1.34171 -2.06571 -0.453998
Spine1  2.75481 -4.01473 -1.01975
RightShoulder  -0.00592153 4.98915 3.52749
RightArm  -36.8699 -20.5829 75.3415
RightForeArm  28.3121 23.4433 4.37915
RightHand  1.12613 -13.1495 -9.37273
LeftShoulder1  -0.0186874 -1.97404 -3.29074
LeftArm  16.0554 -17.4319 -76.5952
LeftForeArm  156 -45.6347 -169.257
LeftHand  0.119978 0.744778 17.769
HEad  20.135 2.15121 3.12975
RightUpLeg  -16.9923 -10.5017 -3.17526
RightLeg  3.45788 -2.18014 0.00966731
RightFoot  16.2625 0.142239 -0.617929
RightToes  -32.1072 -0.159257 -0.266341
116
root  2.85075 33.9819 -14.08 4.92505 -2.62115 2.7065
LeftUpLeg  -2.46265 13.3758 -2.76189
LeftLeg  10.7842 10.7585 1.33117
LeftFoot  -5.06272 -0.0423904 -0.958842
LeftToes  -11.8101 8.556e-007 1.17171e-007
Spine  1.29545 -1.97894 -0.567382
Spine1  2.65822 -3.85128 -1.23503
RightShoulder  -0.00680734 5.06457 3.56673
RightArm  -37.4603 -21.0002 75.0592
RightForeArm  28.6718 22.6609 4.21556
RightHand  1.14547 -13.2132 -9.49121
LeftShoulder1  -0.0181266 -2.04344 -3.97253
LeftArm  13.995 -15.4243 -75.7369
LeftForeArm  158.997 -47.5301 -168.528
LeftHand  -0.239137 -1.57911 16.9252
HEad  20.2244 2.84637 2.80258
RightUpLeg  -16.3543 -10.9293 -3.30201
RightLeg  3.25686 -2.48286 0.0195629
RightFoot  16.3267 0.155777 -0.708326
RightToes  -32.5031 -0.161389 -0.268981
117
root  2.89537 33.9843 -14.0536 4.54878 -2.10073 2.61137
LeftUpLeg  -2.39974 12.6565 -2.70017
LeftLeg  11.5032 11.0702 1.50954
LeftFoot  -5.32827 -0.0485404 -1.04315
LeftToes  -11.5768 8.556e-007 1.17171e-007
Spine  1.26244 -1.88065 -0.703719
Spine1  2.58712 -3.6674 -1.49361
RightShoulder  -0.00753545 5.07565 3.58282
RightArm  -38.4524 -21.2445 75.0188
RightForeArm  28.8017 21.9392 4.06648
RightHand  1.18573 -13.4044 -9.69008
LeftShoulder1  -0.0173884 -2.1113 -4.53401
LeftArm  12.3743 -12.7644 -74.6935
LeftForeArm  159.446 -49.8995 -167.539
LeftHand  -0.310758 -1.9311 17.9757
HEad  20.5068 3.07905 2.73242
RightUpLeg  -15.9833 -11.1471 -3.42631
RightLeg  3.56712 -2.75281 0.0067682
RightFoot  16.2079 0.165132 -0.782083
RightToes  -32.7996 -0.163881 -0.270461
118
root  2.93309 33.9805 -14.0227 4.13737 -1.83164 2.50403
LeftUpLeg  -2.29808 12.2033 -2.60968
LeftLeg  12.2573 11.3555 1.69931
LeftFoot  -5.66073 -0.056416 -1.14109
LeftToes  -11.1675 8.556e-007 1.17171e-007
Spine  1.22818 -1.70287 -0.869165
Spine1  2.51564 -3.31775 -1.81206
RightShoulder  -0.00813525 5.10334 3.61232
RightArm  -39.2593 -21.6043 75.0839
RightForeArm  28.5789 21.5796 3.99291
RightHand  1.2122 -13.5692 -9.78814
LeftShoulder1  -0.0165196 -2.18411 -4.36059
LeftArm  11.9585 -10.0886 -74.1824
LeftForeArm  150.44 -52.7989 -166.2
LeftHand  0.378944 2.13853 19.6621
HEad  20.9965 3.25168 2.79865
RightUpLeg  -15.6039 -10.7471 -3.60035
RightLeg  3.90818 -3.38269 -0.0119193
RightFoot  16.0626 0.187602 -0.95194
RightToes  -33.124 -0.166526 -0.271556
119
root  2.95498 33.9804 -13.9872 3.73624 -1.61209 2.37504
LeftUpLeg  -2.10676 11.9763 -2.44694
LeftLeg  12.828 11.4446 1.82829
LeftFoot  -5.904 -0.0620217 -1.20269
LeftToes  -10.9634 8.556e-007 1.17171e-007
Spine  1.19573 -1.56821 -0.977779
Spine1  2.44638 -3.05707 -2.01681
RightShoulder  -0.00863904 5.18137 3.61502
RightArm  -39.3435 -21.8894 75.0412
RightForeArm  28.3943 21.4901 3.97473
RightHand  1.20763 -13.6461 -9.6928
LeftShoulder1  -0.0155675 -2.54879 -4.1316
LeftArm  10.2926 -7.48458 -73.9046
LeftForeArm  135.962 -55.4295 -164.837
LeftHand  1.24832 7.48298 18.5294
HEad  21.5589 3.56342 2.41458
RightUpLeg  -15.0971 -10.0882 -3.75663
RightLeg  3.97267 -4.20891 -0.0197257
RightFoot  16.0521 0.220052 -1.18291
RightToes  -33.5495 -0.169112 -0.272354
120
root  2.95779 33.9809 -13.9508 3.36502 -1.31264 2.21367
LeftUpLeg  -1.87674 11.8101 -2.20504
LeftLeg  13.258 11.3623 1.9022
LeftFoot  -6.09975 -0.065845 -1.23577
LeftToes  -10.8967 8.556e-007 1.17171e-007
Spine  1.1832 -1.51635 -1.04777
Spine1  2.41791 -2.96174 -2.14828
RightShoulder  -0.00896916 5.15169 3.73341
RightArm  -38.9508 -21.9658 74.906
RightForeArm  28.5535 21.5594 3.9888
RightHand  1.18175 -13.6082 -9.5057
LeftShoulder1  -0.014579 -2.89771 -4.11139
LeftArm  8.23711 -5.28842 -73.6449
LeftForeArm  123.822 -57.6261 -163.556
LeftHand  1.80219 11.8972 16.7883
HEad  21.8276 3.77939 1.74277
RightUpLeg  -14.5504 -9.82021 -3.77802
RightLeg  3.89308 -4.73049 -0.0156928
RightFoot  16.078 0.241477 -1.33202
RightToes  -33.9169 -0.171802 -0.272943
121
root  2.95124 33.9776 -13.9205 3.05209 -0.976638 2.00948
LeftUpLeg  -1.6352 11.4425 -1.93295
LeftLeg  13.5184 11.4122 1.96337
LeftFoot  -6.27811 -0.0701507 -1.2791
LeftToes  -10.8607 8.556e-007 1.17171e-007
Spine  1.16975 -1.51025 -1.10693
Spine1  2.39072 -2.95233 -2.2643
RightShoulder  -0.0091918 5.08949 3.84379
RightArm  -38.6843 -21.9814 74.9623
RightForeArm  28.5267 21.8036 4.03879
RightHand  1.17751 -13.632 -9.45319
LeftShoulder1  -0.0136013 -2.98314 -4.26318
LeftArm  7.45958 -3.76988 -73.3016
LeftForeArm  118.345 -58.966 -162.685
LeftHand  2.0382 13.2878 16.9873
HEad  21.7678 3.88431 1.1752
RightUpLeg  -14.1496 -10.1095 -3.64402
RightLeg  3.95889 -4.75064 -0.0211999
RightFoot  15.9707 0.239533 -1.3298
RightToes  -33.9947 -0.173148 -0.273413
122
root  2.94689 33.9743 -13.8989 2.83448 -0.791318 1.85336
LeftUpLeg  -1.37319 11.0818 -1.75782
LeftLeg  13.5052 11.6041 1.99321
LeftFoot  -6.38601 -0.0738547 -1.32384
LeftToes  -10.6706 8.556e-007 1.17171e-007
Spine  1.13669 -1.45557 -1.17583
Spine1  2.32486 -2.84259 -2.40131
RightShoulder  -0.00933659 4.99639 3.87871
RightArm  -38.4079 -22.0454 75.1885
RightForeArm  28.0449 22.223 4.12524
RightHand  1.17357 -13.5816 -9.45698
LeftShoulder1  -0.0126815 -2.96465 -4.5092
LeftArm  6.99354 -2.79988 -72.9371
LeftForeArm  116.959 -59.4707 -162.334
LeftHand  2.04782 13.7731 16.4574
HEad  21.7056 3.8671 0.829385
RightUpLeg  -14.0061 -10.6736 -3.47832
RightLeg  4.26434 -4.34732 -0.0424549
RightFoot  15.712 0.21759 -1.19928
RightToes  -33.6254 -0.174179 -0.273852
123
root  2.93868 33.9735 -13.8868 2.69722 -0.79704 1.7678
LeftUpLeg  -1.13936 11.1362 -1.61509
LeftLeg  13.3609 11.5274 1.95057
LeftFoot  -6.38603 -0.0736564 -1.31389
LeftToes  -10.7518 8.556e-007 1.17171e-007
Spine  1.08419 -1.36387 -1.26577
Spine1  2.22274 -2.65136 -2.58468
RightShoulder  -0.00943275 4.95529 3.87672
RightArm  -38.2186 -22.045 75.5423
RightForeArm  27.8289 22.683 4.22053
RightHand  1.14361 -13.5254 -9.2472
LeftShoulder1  -0.0118666 -2.72814 -4.82881
LeftArm  6.84962 -2.4297 -72.6474
LeftForeArm  115.425 -59.4205 -162.379
LeftHand  2.1094 14.2966 16.3246
HEad  21.6968 3.87005 0.5254
RightUpLeg  -13.9231 -10.8691 -3.38145
RightLeg  4.42772 -4.1396 -0.0521646
RightFoot  15.6018 0.207083 -1.13389
RightToes  -33.4918 -0.174929 -0.274348
124
root  2.93544 33.9749 -13.8814 2.56057 -0.837727 1.69793
LeftUpLeg  -0.856408 11.2336 -1.49375
LeftLeg  13.09 11.4503 1.88251
LeftFoot  -6.32943 -0.0714287 -1.29182
LeftToes  -10.8232 8.556e-007 1.17171e-007
Spine  1.01114 -1.25337 -1.36117
Spine1  2.07867 -2.42311 -2.77806
RightShoulder  -0.0094784 4.93556 3.84726
RightArm  -37.7754 -22.0774 75.9034
RightForeArm  27.6965 23.0646 4.30007
RightHand  1.11793 -13.4362 -9.09498
LeftShoulder1  -0.0112036 -2.50948 -4.98062
LeftArm  6.87598 -2.3083 -72.613
LeftForeArm  115.699 -59.1336 -162.582
LeftHand  2.16191 14.4041 16.6072
HEad  21.8783 3.76102 0.413322
RightUpLeg  -13.7952 -10.9404 -3.31405
RightLeg  4.45831 -4.02895 -0.0528968
RightFoot  15.5962 0.202702 -1.10245
RightToes  -33.4506 -0.175431 -0.27499
125
root  2.92997 33.9776 -13.8863 2.47444 -0.701412 1.65443
LeftUpLeg  -0.688557 11.2269 -1.40796
LeftLeg  12.8829 11.324 1.82032
LeftFoot  -6.25091 -0.068812 -1.26017
LeftToes  -10.8593 8.556e-007 1.17171e-007
Spine  0.962214 -1.22091 -1.45185
Spine1  1.98397 -2.35131 -2.96348
RightShoulder  -0.00946574 4.89097 3.80438
RightArm  -37.371 -21.9679 76.3193
RightForeArm  27.7365 23.38 4.3661
RightHand  1.10216 -13.3861 -8.99707
LeftShoulder1  -0.0107398 -2.43057 -5.0726
LeftArm  6.68849 -2.27567 -72.4512
LeftForeArm  116.353 -58.2336 -163.196
LeftHand  2.22494 14.4186 17.0773
HEad  21.9002 3.52771 0.268399
RightUpLeg  -13.5739 -10.8866 -3.31253
RightLeg  4.21339 -4.20533 -0.0373195
RightFoot  15.7435 0.212531 -1.15951
RightToes  -33.55 -0.17572 -0.275867
